<svg xmlns="http://www.w3.org/2000/svg" width="600" height="790"><rect width="600" height="790" fill="#ffffff"/><text x="30" y="30" fill="black" font-size="16" font-family="sans-serif">1957-04-14,15: Kitani Minoru 9d (B) vs Go Seigen 9d (W)</text><text x="30" y="50" fill="black" font-size="16" font-family="sans-serif" font-style="italic">Komi: 0</text><text x="30" y="70" fill="black" font-size="16" font-family="sans-serif" font-style="italic">Result: W+R</text><g transform="translate(0, 70)"><line x1="30" y1="30" x2="30" y2="570" stroke="black" stroke-width="2"/><line x1="30" y1="30" x2="570" y2="30" stroke="black" stroke-width="2"/><line x1="60" y1="30" x2="60" y2="570" stroke="black" stroke-width="0.8"/><line x1="30" y1="60" x2="570" y2="60" stroke="black" stroke-width="0.8"/><line x1="90" y1="30" x2="90" y2="570" stroke="black" stroke-width="0.8"/><line x1="30" y1="90" x2="570" y2="90" stroke="black" stroke-width="0.8"/><line x1="120" y1="30" x2="120" y2="570" stroke="black" stroke-width="0.8"/><line x1="30" y1="120" x2="570" y2="120" stroke="black" stroke-width="0.8"/><line x1="150" y1="30" x2="150" y2="570" stroke="black" stroke-width="0.8"/><line x1="30" y1="150" x2="570" y2="150" stroke="black" stroke-width="0.8"/><line x1="180" y1="30" x2="180" y2="570" stroke="black" stroke-width="0.8"/><line x1="30" y1="180" x2="570" y2="180" stroke="black" stroke-width="0.8"/><line x1="210" y1="30" x2="210" y2="570" stroke="black" stroke-width="0.8"/><line x1="30" y1="210" x2="570" y2="210" stroke="black" stroke-width="0.8"/><line x1="240" y1="30" x2="240" y2="570" stroke="black" stroke-width="0.8"/><line x1="30" y1="240" x2="570" y2="240" stroke="black" stroke-width="0.8"/><line x1="270" y1="30" x2="270" y2="570" stroke="black" stroke-width="0.8"/><line x1="30" y1="270" x2="570" y2="270" stroke="black" stroke-width="0.8"/><line x1="300" y1="30" x2="300" y2="570" stroke="black" stroke-width="0.8"/><line x1="30" y1="300" x2="570" y2="300" stroke="black" stroke-width="0.8"/><line x1="330" y1="30" x2="330" y2="570" stroke="black" stroke-width="0.8"/><line x1="30" y1="330" x2="570" y2="330" stroke="black" stroke-width="0.8"/><line x1="360" y1="30" x2="360" y2="570" stroke="black" stroke-width="0.8"/><line x1="30" y1="360" x2="570" y2="360" stroke="black" stroke-width="0.8"/><line x1="390" y1="30" x2="390" y2="570" stroke="black" stroke-width="0.8"/><line x1="30" y1="390" x2="570" y2="390" stroke="black" stroke-width="0.8"/><line x1="420" y1="30" x2="420" y2="570" stroke="black" stroke-width="0.8"/><line x1="30" y1="420" x2="570" y2="420" stroke="black" stroke-width="0.8"/><line x1="450" y1="30" x2="450" y2="570" stroke="black" stroke-width="0.8"/><line x1="30" y1="450" x2="570" y2="450" stroke="black" stroke-width="0.8"/><line x1="480" y1="30" x2="480" y2="570" stroke="black" stroke-width="0.8"/><line x1="30" y1="480" x2="570" y2="480" stroke="black" stroke-width="0.8"/><line x1="510" y1="30" x2="510" y2="570" stroke="black" stroke-width="0.8"/><line x1="30" y1="510" x2="570" y2="510" stroke="black" stroke-width="0.8"/><line x1="540" y1="30" x2="540" y2="570" stroke="black" stroke-width="0.8"/><line x1="30" y1="540" x2="570" y2="540" stroke="black" stroke-width="0.8"/><line x1="570" y1="30" x2="570" y2="570" stroke="black" stroke-width="2"/><line x1="30" y1="570" x2="570" y2="570" stroke="black" stroke-width="2"/><circle cx="120" cy="120" r="3" fill="black"/><circle cx="510" cy="120" r="3" fill="black"/><circle cx="120" cy="510" r="3" fill="black"/><circle cx="510" cy="510" r="3" fill="black"/><circle cx="300" cy="300" r="3" fill="black"/><circle cx="510" cy="120" r="13.2" fill="#111" stroke="#000" stroke-width="0.8"/><text x="510" y="120" fill="white" font-size="15" font-family="sans-serif" text-anchor="middle" dominant-baseline="central">1</text><circle cx="120" cy="90" r="13.2" fill="#f8f8f8" stroke="#333" stroke-width="0.8"/><text x="120" y="90" fill="black" font-size="15" font-family="sans-serif" text-anchor="middle" dominant-baseline="central">2</text><circle cx="480" cy="510" r="13.2" fill="#111" stroke="#000" stroke-width="0.8"/><text x="480" y="510" fill="white" font-size="15" font-family="sans-serif" text-anchor="middle" dominant-baseline="central">3</text><circle cx="450" cy="90" r="13.2" fill="#f8f8f8" stroke="#333" stroke-width="0.8"/><text x="450" y="90" fill="black" font-size="15" font-family="sans-serif" text-anchor="middle" dominant-baseline="central">4</text><circle cx="90" cy="480" r="13.2" fill="#111" stroke="#000" stroke-width="0.8"/><text x="90" y="480" fill="white" font-size="15" font-family="sans-serif" text-anchor="middle" dominant-baseline="central">5</text><circle cx="480" cy="450" r="13.2" fill="#f8f8f8" stroke="#333" stroke-width="0.8"/><text x="480" y="450" fill="black" font-size="15" font-family="sans-serif" text-anchor="middle" dominant-baseline="central">6</text><circle cx="480" cy="480" r="13.2" fill="#111" stroke="#000" stroke-width="0.8"/><text x="480" y="480" fill="white" font-size="15" font-family="sans-serif" text-anchor="middle" dominant-baseline="central">7</text><circle cx="450" cy="450" r="13.2" fill="#f8f8f8" stroke="#333" stroke-width="0.8"/><text x="450" y="450" fill="black" font-size="15" font-family="sans-serif" text-anchor="middle" dominant-baseline="central">8</text><circle cx="510" cy="450" r="13.2" fill="#111" stroke="#000" stroke-width="0.8"/><text x="510" y="450" fill="white" font-size="15" font-family="sans-serif" text-anchor="middle" dominant-baseline="central">9</text><circle cx="510" cy="420" r="13.2" fill="#f8f8f8" stroke="#333" stroke-width="0.8"/><text x="510" y="420" fill="black" font-size="15" font-family="sans-serif" text-anchor="middle" dominant-baseline="central">10</text><circle cx="540" cy="450" r="13.2" fill="#111" stroke="#000" stroke-width="0.8"/><text x="540" y="450" fill="white" font-size="15" font-family="sans-serif" text-anchor="middle" dominant-baseline="central">11</text><circle cx="510" cy="210" r="13.2" fill="#f8f8f8" stroke="#333" stroke-width="0.8"/><text x="510" y="210" fill="black" font-size="15" font-family="sans-serif" text-anchor="middle" dominant-baseline="central">12</text><circle cx="480" cy="150" r="13.2" fill="#111" stroke="#000" stroke-width="0.8"/><text x="480" y="150" fill="white" font-size="15" font-family="sans-serif" text-anchor="middle" dominant-baseline="central">13</text><circle cx="510" cy="300" r="13.2" fill="#f8f8f8" stroke="#333" stroke-width="0.8"/><text x="510" y="300" fill="black" font-size="15" font-family="sans-serif" text-anchor="middle" dominant-baseline="central">14</text><circle cx="150" cy="480" r="13.2" fill="#111" stroke="#000" stroke-width="0.8"/><text x="150" y="480" fill="white" font-size="15" font-family="sans-serif" text-anchor="middle" dominant-baseline="central">15</text><circle cx="90" cy="180" r="13.2" fill="#f8f8f8" stroke="#333" stroke-width="0.8"/><text x="90" y="180" fill="black" font-size="15" font-family="sans-serif" text-anchor="middle" dominant-baseline="central">16</text><circle cx="330" cy="90" r="13.2" fill="#111" stroke="#000" stroke-width="0.8"/><text x="330" y="90" fill="white" font-size="15" font-family="sans-serif" text-anchor="middle" dominant-baseline="central">17</text><circle cx="450" cy="150" r="13.2" fill="#f8f8f8" stroke="#333" stroke-width="0.8"/><text x="450" y="150" fill="black" font-size="15" font-family="sans-serif" text-anchor="middle" dominant-baseline="central">18</text><circle cx="480" cy="210" r="13.2" fill="#111" stroke="#000" stroke-width="0.8"/><text x="480" y="210" fill="white" font-size="15" font-family="sans-serif" text-anchor="middle" dominant-baseline="central">19</text><circle cx="480" cy="120" r="13.2" fill="#f8f8f8" stroke="#333" stroke-width="0.8"/><text x="480" y="120" fill="black" font-size="15" font-family="sans-serif" text-anchor="middle" dominant-baseline="central">20</text><circle cx="510" cy="150" r="13.2" fill="#111" stroke="#000" stroke-width="0.8"/><text x="510" y="150" fill="white" font-size="15" font-family="sans-serif" text-anchor="middle" dominant-baseline="central">21</text><circle cx="450" cy="180" r="13.2" fill="#f8f8f8" stroke="#333" stroke-width="0.8"/><text x="450" y="180" fill="black" font-size="15" font-family="sans-serif" text-anchor="middle" dominant-baseline="central">22</text><circle cx="480" cy="180" r="13.2" fill="#111" stroke="#000" stroke-width="0.8"/><text x="480" y="180" fill="white" font-size="15" font-family="sans-serif" text-anchor="middle" dominant-baseline="central">23</text><circle cx="510" cy="90" r="13.2" fill="#f8f8f8" stroke="#333" stroke-width="0.8"/><text x="510" y="90" fill="black" font-size="15" font-family="sans-serif" text-anchor="middle" dominant-baseline="central">24</text><circle cx="540" cy="90" r="13.2" fill="#111" stroke="#000" stroke-width="0.8"/><text x="540" y="90" fill="white" font-size="15" font-family="sans-serif" text-anchor="middle" dominant-baseline="central">25</text><circle cx="510" cy="60" r="13.2" fill="#f8f8f8" stroke="#333" stroke-width="0.8"/><text x="510" y="60" fill="black" font-size="15" font-family="sans-serif" text-anchor="middle" dominant-baseline="central">26</text><circle cx="240" cy="90" r="13.2" fill="#111" stroke="#000" stroke-width="0.8"/><text x="240" y="90" fill="white" font-size="15" font-family="sans-serif" text-anchor="middle" dominant-baseline="central">27</text><circle cx="510" cy="240" r="13.2" fill="#f8f8f8" stroke="#333" stroke-width="0.8"/><text x="510" y="240" fill="black" font-size="15" font-family="sans-serif" text-anchor="middle" dominant-baseline="central">28</text><circle cx="450" cy="210" r="13.2" fill="#111" stroke="#000" stroke-width="0.8"/><text x="450" y="210" fill="white" font-size="15" font-family="sans-serif" text-anchor="middle" dominant-baseline="central">29</text><circle cx="540" cy="420" r="13.2" fill="#f8f8f8" stroke="#333" stroke-width="0.8"/><text x="540" y="420" fill="black" font-size="15" font-family="sans-serif" text-anchor="middle" dominant-baseline="central">30</text><circle cx="420" cy="480" r="13.2" fill="#111" stroke="#000" stroke-width="0.8"/><text x="420" y="480" fill="white" font-size="15" font-family="sans-serif" text-anchor="middle" dominant-baseline="central">31</text><circle cx="270" cy="510" r="13.2" fill="#f8f8f8" stroke="#333" stroke-width="0.8"/><text x="270" y="510" fill="black" font-size="15" font-family="sans-serif" text-anchor="middle" dominant-baseline="central">32</text><circle cx="480" cy="270" r="13.2" fill="#111" stroke="#000" stroke-width="0.8"/><text x="480" y="270" fill="white" font-size="15" font-family="sans-serif" text-anchor="middle" dominant-baseline="central">33</text><circle cx="360" cy="510" r="13.2" fill="#f8f8f8" stroke="#333" stroke-width="0.8"/><text x="360" y="510" fill="black" font-size="15" font-family="sans-serif" text-anchor="middle" dominant-baseline="central">34</text><circle cx="390" cy="510" r="13.2" fill="#111" stroke="#000" stroke-width="0.8"/><text x="390" y="510" fill="white" font-size="15" font-family="sans-serif" text-anchor="middle" dominant-baseline="central">35</text><circle cx="360" cy="480" r="13.2" fill="#f8f8f8" stroke="#333" stroke-width="0.8"/><text x="360" y="480" fill="black" font-size="15" font-family="sans-serif" text-anchor="middle" dominant-baseline="central">36</text><circle cx="420" cy="450" r="13.2" fill="#111" stroke="#000" stroke-width="0.8"/><text x="420" y="450" fill="white" font-size="15" font-family="sans-serif" text-anchor="middle" dominant-baseline="central">37</text><circle cx="420" cy="420" r="13.2" fill="#f8f8f8" stroke="#333" stroke-width="0.8"/><text x="420" y="420" fill="black" font-size="15" font-family="sans-serif" text-anchor="middle" dominant-baseline="central">38</text><circle cx="510" cy="270" r="13.2" fill="#111" stroke="#000" stroke-width="0.8"/><text x="510" y="270" fill="white" font-size="15" font-family="sans-serif" text-anchor="middle" dominant-baseline="central">39</text><circle cx="540" cy="270" r="13.2" fill="#f8f8f8" stroke="#333" stroke-width="0.8"/><text x="540" y="270" fill="black" font-size="15" font-family="sans-serif" text-anchor="middle" dominant-baseline="central">40</text><circle cx="540" cy="300" r="13.2" fill="#111" stroke="#000" stroke-width="0.8"/><text x="540" y="300" fill="white" font-size="15" font-family="sans-serif" text-anchor="middle" dominant-baseline="central">41</text><circle cx="540" cy="330" r="13.2" fill="#f8f8f8" stroke="#333" stroke-width="0.8"/><text x="540" y="330" fill="black" font-size="15" font-family="sans-serif" text-anchor="middle" dominant-baseline="central">42</text><circle cx="480" cy="300" r="13.2" fill="#111" stroke="#000" stroke-width="0.8"/><text x="480" y="300" fill="white" font-size="15" font-family="sans-serif" text-anchor="middle" dominant-baseline="central">43</text><circle cx="570" cy="300" r="13.2" fill="#f8f8f8" stroke="#333" stroke-width="0.8"/><text x="570" y="300" fill="black" font-size="15" font-family="sans-serif" text-anchor="middle" dominant-baseline="central">44</text><circle cx="510" cy="330" r="13.2" fill="#111" stroke="#000" stroke-width="0.8"/><text x="510" y="330" fill="white" font-size="15" font-family="sans-serif" text-anchor="middle" dominant-baseline="central">45</text><circle cx="480" cy="330" r="13.2" fill="#111" stroke="#000" stroke-width="0.8"/><text x="480" y="330" fill="white" font-size="15" font-family="sans-serif" text-anchor="middle" dominant-baseline="central">47</text><circle cx="390" cy="90" r="13.2" fill="#f8f8f8" stroke="#333" stroke-width="0.8"/><text x="390" y="90" fill="black" font-size="15" font-family="sans-serif" text-anchor="middle" dominant-baseline="central">48</text><circle cx="180" cy="90" r="13.2" fill="#111" stroke="#000" stroke-width="0.8"/><text x="180" y="90" fill="white" font-size="15" font-family="sans-serif" text-anchor="middle" dominant-baseline="central">49</text><circle cx="90" cy="330" r="13.2" fill="#f8f8f8" stroke="#333" stroke-width="0.8"/><text x="90" y="330" fill="black" font-size="15" font-family="sans-serif" text-anchor="middle" dominant-baseline="central">50</text><circle cx="210" cy="510" r="13.2" fill="#111" stroke="#000" stroke-width="0.8"/><text x="210" y="510" fill="white" font-size="15" font-family="sans-serif" text-anchor="middle" dominant-baseline="central">51</text><circle cx="390" cy="450" r="13.2" fill="#f8f8f8" stroke="#333" stroke-width="0.8"/><text x="390" y="450" fill="black" font-size="15" font-family="sans-serif" text-anchor="middle" dominant-baseline="central">52</text><circle cx="360" cy="540" r="13.2" fill="#111" stroke="#000" stroke-width="0.8"/><text x="360" y="540" fill="white" font-size="15" font-family="sans-serif" text-anchor="middle" dominant-baseline="central">53</text><circle cx="330" cy="540" r="13.2" fill="#f8f8f8" stroke="#333" stroke-width="0.8"/><text x="330" y="540" fill="black" font-size="15" font-family="sans-serif" text-anchor="middle" dominant-baseline="central">54</text><circle cx="390" cy="540" r="13.2" fill="#111" stroke="#000" stroke-width="0.8"/><text x="390" y="540" fill="white" font-size="15" font-family="sans-serif" text-anchor="middle" dominant-baseline="central">55</text><circle cx="420" cy="300" r="13.2" fill="#f8f8f8" stroke="#333" stroke-width="0.8"/><text x="420" y="300" fill="black" font-size="15" font-family="sans-serif" text-anchor="middle" dominant-baseline="central">56</text><circle cx="420" cy="330" r="13.2" fill="#111" stroke="#000" stroke-width="0.8"/><text x="420" y="330" fill="white" font-size="15" font-family="sans-serif" text-anchor="middle" dominant-baseline="central">57</text><circle cx="390" cy="330" r="13.2" fill="#f8f8f8" stroke="#333" stroke-width="0.8"/><text x="390" y="330" fill="black" font-size="15" font-family="sans-serif" text-anchor="middle" dominant-baseline="central">58</text><circle cx="420" cy="360" r="13.2" fill="#111" stroke="#000" stroke-width="0.8"/><text x="420" y="360" fill="white" font-size="15" font-family="sans-serif" text-anchor="middle" dominant-baseline="central">59</text><circle cx="390" cy="300" r="13.2" fill="#f8f8f8" stroke="#333" stroke-width="0.8"/><text x="390" y="300" fill="black" font-size="15" font-family="sans-serif" text-anchor="middle" dominant-baseline="central">60</text><circle cx="450" cy="300" r="13.2" fill="#111" stroke="#000" stroke-width="0.8"/><text x="450" y="300" fill="white" font-size="15" font-family="sans-serif" text-anchor="middle" dominant-baseline="central">61</text><circle cx="570" cy="450" r="13.2" fill="#f8f8f8" stroke="#333" stroke-width="0.8"/><text x="570" y="450" fill="black" font-size="15" font-family="sans-serif" text-anchor="middle" dominant-baseline="central">62</text><circle cx="540" cy="510" r="13.2" fill="#111" stroke="#000" stroke-width="0.8"/><text x="540" y="510" fill="white" font-size="15" font-family="sans-serif" text-anchor="middle" dominant-baseline="central">63</text><circle cx="390" cy="360" r="13.2" fill="#f8f8f8" stroke="#333" stroke-width="0.8"/><text x="390" y="360" fill="black" font-size="15" font-family="sans-serif" text-anchor="middle" dominant-baseline="central">64</text><circle cx="420" cy="390" r="13.2" fill="#111" stroke="#000" stroke-width="0.8"/><text x="420" y="390" fill="white" font-size="15" font-family="sans-serif" text-anchor="middle" dominant-baseline="central">65</text><circle cx="390" cy="390" r="13.2" fill="#f8f8f8" stroke="#333" stroke-width="0.8"/><text x="390" y="390" fill="black" font-size="15" font-family="sans-serif" text-anchor="middle" dominant-baseline="central">66</text><circle cx="450" cy="420" r="13.2" fill="#111" stroke="#000" stroke-width="0.8"/><text x="450" y="420" fill="white" font-size="15" font-family="sans-serif" text-anchor="middle" dominant-baseline="central">67</text><circle cx="390" cy="420" r="13.2" fill="#f8f8f8" stroke="#333" stroke-width="0.8"/><text x="390" y="420" fill="black" font-size="15" font-family="sans-serif" text-anchor="middle" dominant-baseline="central">68</text><circle cx="480" cy="420" r="13.2" fill="#111" stroke="#000" stroke-width="0.8"/><text x="480" y="420" fill="white" font-size="15" font-family="sans-serif" text-anchor="middle" dominant-baseline="central">69</text><circle cx="90" cy="420" r="13.2" fill="#f8f8f8" stroke="#333" stroke-width="0.8"/><text x="90" y="420" fill="black" font-size="15" font-family="sans-serif" text-anchor="middle" dominant-baseline="central">70</text><circle cx="510" cy="390" r="13.2" fill="#111" stroke="#000" stroke-width="0.8"/><text x="510" y="390" fill="white" font-size="15" font-family="sans-serif" text-anchor="middle" dominant-baseline="central">71</text><circle cx="540" cy="390" r="13.2" fill="#f8f8f8" stroke="#333" stroke-width="0.8"/><text x="540" y="390" fill="black" font-size="15" font-family="sans-serif" text-anchor="middle" dominant-baseline="central">72</text><circle cx="510" cy="360" r="13.2" fill="#111" stroke="#000" stroke-width="0.8"/><text x="510" y="360" fill="white" font-size="15" font-family="sans-serif" text-anchor="middle" dominant-baseline="central">73</text><circle cx="540" cy="360" r="13.2" fill="#f8f8f8" stroke="#333" stroke-width="0.8"/><text x="540" y="360" fill="black" font-size="15" font-family="sans-serif" text-anchor="middle" dominant-baseline="central">74</text><circle cx="90" cy="450" r="13.2" fill="#111" stroke="#000" stroke-width="0.8"/><text x="90" y="450" fill="white" font-size="15" font-family="sans-serif" text-anchor="middle" dominant-baseline="central">75</text><circle cx="60" cy="420" r="13.2" fill="#f8f8f8" stroke="#333" stroke-width="0.8"/><text x="60" y="420" fill="black" font-size="15" font-family="sans-serif" text-anchor="middle" dominant-baseline="central">76</text><circle cx="90" cy="150" r="13.2" fill="#111" stroke="#000" stroke-width="0.8"/><text x="90" y="150" fill="white" font-size="15" font-family="sans-serif" text-anchor="middle" dominant-baseline="central">77</text><circle cx="120" cy="150" r="13.2" fill="#f8f8f8" stroke="#333" stroke-width="0.8"/><text x="120" y="150" fill="black" font-size="15" font-family="sans-serif" text-anchor="middle" dominant-baseline="central">78</text><circle cx="90" cy="120" r="13.2" fill="#111" stroke="#000" stroke-width="0.8"/><text x="90" y="120" fill="white" font-size="15" font-family="sans-serif" text-anchor="middle" dominant-baseline="central">79</text><circle cx="120" cy="180" r="13.2" fill="#f8f8f8" stroke="#333" stroke-width="0.8"/><text x="120" y="180" fill="black" font-size="15" font-family="sans-serif" text-anchor="middle" dominant-baseline="central">80</text><circle cx="120" cy="120" r="13.2" fill="#111" stroke="#000" stroke-width="0.8"/><text x="120" y="120" fill="white" font-size="15" font-family="sans-serif" text-anchor="middle" dominant-baseline="central">81</text><circle cx="150" cy="120" r="13.2" fill="#f8f8f8" stroke="#333" stroke-width="0.8"/><text x="150" y="120" fill="black" font-size="15" font-family="sans-serif" text-anchor="middle" dominant-baseline="central">82</text><circle cx="150" cy="90" r="13.2" fill="#111" stroke="#000" stroke-width="0.8"/><text x="150" y="90" fill="white" font-size="15" font-family="sans-serif" text-anchor="middle" dominant-baseline="central">83</text><circle cx="90" cy="90" r="13.2" fill="#f8f8f8" stroke="#333" stroke-width="0.8"/><text x="90" y="90" fill="black" font-size="15" font-family="sans-serif" text-anchor="middle" dominant-baseline="central">84</text><circle cx="60" cy="90" r="13.2" fill="#111" stroke="#000" stroke-width="0.8"/><text x="60" y="90" fill="white" font-size="15" font-family="sans-serif" text-anchor="middle" dominant-baseline="central">85</text><circle cx="60" cy="60" r="13.2" fill="#f8f8f8" stroke="#333" stroke-width="0.8"/><text x="60" y="60" fill="black" font-size="15" font-family="sans-serif" text-anchor="middle" dominant-baseline="central">86</text><circle cx="60" cy="180" r="13.2" fill="#111" stroke="#000" stroke-width="0.8"/><text x="60" y="180" fill="white" font-size="15" font-family="sans-serif" text-anchor="middle" dominant-baseline="central">87</text><circle cx="60" cy="210" r="13.2" fill="#f8f8f8" stroke="#333" stroke-width="0.8"/><text x="60" y="210" fill="black" font-size="15" font-family="sans-serif" text-anchor="middle" dominant-baseline="central">88</text><circle cx="60" cy="120" r="13.2" fill="#111" stroke="#000" stroke-width="0.8"/><text x="60" y="120" fill="white" font-size="15" font-family="sans-serif" text-anchor="middle" dominant-baseline="central">89</text><circle cx="30" cy="180" r="13.2" fill="#f8f8f8" stroke="#333" stroke-width="0.8"/><text x="30" y="180" fill="black" font-size="15" font-family="sans-serif" text-anchor="middle" dominant-baseline="central">90</text><circle cx="30" cy="60" r="13.2" fill="#111" stroke="#000" stroke-width="0.8"/><text x="30" y="60" fill="white" font-size="15" font-family="sans-serif" text-anchor="middle" dominant-baseline="central">91</text><circle cx="60" cy="30" r="13.2" fill="#f8f8f8" stroke="#333" stroke-width="0.8"/><text x="60" y="30" fill="black" font-size="15" font-family="sans-serif" text-anchor="middle" dominant-baseline="central">92</text><circle cx="30" cy="150" r="13.2" fill="#111" stroke="#000" stroke-width="0.8"/><text x="30" y="150" fill="white" font-size="15" font-family="sans-serif" text-anchor="middle" dominant-baseline="central">93</text><circle cx="60" cy="150" r="13.2" fill="#f8f8f8" stroke="#333" stroke-width="0.8"/><text x="60" y="150" fill="black" font-size="15" font-family="sans-serif" text-anchor="middle" dominant-baseline="central">94</text><circle cx="150" cy="150" r="13.2" fill="#111" stroke="#000" stroke-width="0.8"/><text x="150" y="150" fill="white" font-size="15" font-family="sans-serif" text-anchor="middle" dominant-baseline="central">95</text><circle cx="180" cy="120" r="13.2" fill="#f8f8f8" stroke="#333" stroke-width="0.8"/><text x="180" y="120" fill="black" font-size="15" font-family="sans-serif" text-anchor="middle" dominant-baseline="central">96</text><circle cx="30" cy="210" r="13.2" fill="#f8f8f8" stroke="#333" stroke-width="0.8"/><text x="30" y="210" fill="black" font-size="15" font-family="sans-serif" text-anchor="middle" dominant-baseline="central">98</text><circle cx="150" cy="60" r="13.2" fill="#111" stroke="#000" stroke-width="0.8"/><text x="150" y="60" fill="white" font-size="15" font-family="sans-serif" text-anchor="middle" dominant-baseline="central">99</text><circle cx="90" cy="60" r="13.2" fill="#f8f8f8" stroke="#333" stroke-width="0.8"/><text x="90" y="60" fill="black" font-size="12" font-family="sans-serif" text-anchor="middle" dominant-baseline="central">100</text><circle cx="90" cy="210" r="13.2" fill="#111" stroke="#000" stroke-width="0.8"/><text x="90" y="210" fill="white" font-size="12" font-family="sans-serif" text-anchor="middle" dominant-baseline="central">101</text><circle cx="210" cy="120" r="13.2" fill="#f8f8f8" stroke="#333" stroke-width="0.8"/><text x="210" y="120" fill="black" font-size="12" font-family="sans-serif" text-anchor="middle" dominant-baseline="central">102</text><circle cx="60" cy="240" r="13.2" fill="#111" stroke="#000" stroke-width="0.8"/><text x="60" y="240" fill="white" font-size="12" font-family="sans-serif" text-anchor="middle" dominant-baseline="central">103</text><circle cx="540" cy="180" r="13.2" fill="#111" stroke="#000" stroke-width="0.8"/><text x="540" y="180" fill="white" font-size="12" font-family="sans-serif" text-anchor="middle" dominant-baseline="central">105</text><circle cx="30" cy="120" r="13.2" fill="#f8f8f8" stroke="#333" stroke-width="0.8"/><text x="30" y="120" fill="black" font-size="12" font-family="sans-serif" text-anchor="middle" dominant-baseline="central">106</text><circle cx="570" cy="240" r="13.2" fill="#111" stroke="#000" stroke-width="0.8"/><text x="570" y="240" fill="white" font-size="12" font-family="sans-serif" text-anchor="middle" dominant-baseline="central">107</text><circle cx="150" cy="420" r="13.2" fill="#f8f8f8" stroke="#333" stroke-width="0.8"/><text x="150" y="420" fill="black" font-size="12" font-family="sans-serif" text-anchor="middle" dominant-baseline="central">108</text><circle cx="240" cy="120" r="13.2" fill="#111" stroke="#000" stroke-width="0.8"/><text x="240" y="120" fill="white" font-size="12" font-family="sans-serif" text-anchor="middle" dominant-baseline="central">109</text><circle cx="240" cy="150" r="13.2" fill="#f8f8f8" stroke="#333" stroke-width="0.8"/><text x="240" y="150" fill="black" font-size="12" font-family="sans-serif" text-anchor="middle" dominant-baseline="central">110</text><circle cx="210" cy="150" r="13.2" fill="#111" stroke="#000" stroke-width="0.8"/><text x="210" y="150" fill="white" font-size="12" font-family="sans-serif" text-anchor="middle" dominant-baseline="central">111</text><circle cx="270" cy="150" r="13.2" fill="#f8f8f8" stroke="#333" stroke-width="0.8"/><text x="270" y="150" fill="black" font-size="12" font-family="sans-serif" text-anchor="middle" dominant-baseline="central">112</text><circle cx="180" cy="150" r="13.2" fill="#111" stroke="#000" stroke-width="0.8"/><text x="180" y="150" fill="white" font-size="12" font-family="sans-serif" text-anchor="middle" dominant-baseline="central">113</text><circle cx="30" cy="90" r="13.2" fill="#f8f8f8" stroke="#333" stroke-width="0.8"/><text x="30" y="90" fill="black" font-size="12" font-family="sans-serif" text-anchor="middle" dominant-baseline="central">114</text><circle cx="150" cy="300" r="13.2" fill="#111" stroke="#000" stroke-width="0.8"/><text x="150" y="300" fill="white" font-size="12" font-family="sans-serif" text-anchor="middle" dominant-baseline="central">115</text><circle cx="210" cy="300" r="13.2" fill="#f8f8f8" stroke="#333" stroke-width="0.8"/><text x="210" y="300" fill="black" font-size="12" font-family="sans-serif" text-anchor="middle" dominant-baseline="central">116</text><circle cx="150" cy="360" r="13.2" fill="#111" stroke="#000" stroke-width="0.8"/><text x="150" y="360" fill="white" font-size="12" font-family="sans-serif" text-anchor="middle" dominant-baseline="central">117</text><circle cx="180" cy="390" r="13.2" fill="#f8f8f8" stroke="#333" stroke-width="0.8"/><text x="180" y="390" fill="black" font-size="12" font-family="sans-serif" text-anchor="middle" dominant-baseline="central">118</text><circle cx="210" cy="240" r="13.2" fill="#111" stroke="#000" stroke-width="0.8"/><text x="210" y="240" fill="white" font-size="12" font-family="sans-serif" text-anchor="middle" dominant-baseline="central">119</text><circle cx="180" cy="270" r="13.2" fill="#f8f8f8" stroke="#333" stroke-width="0.8"/><text x="180" y="270" fill="black" font-size="12" font-family="sans-serif" text-anchor="middle" dominant-baseline="central">120</text><circle cx="150" cy="210" r="13.2" fill="#111" stroke="#000" stroke-width="0.8"/><text x="150" y="210" fill="white" font-size="12" font-family="sans-serif" text-anchor="middle" dominant-baseline="central">121</text><circle cx="180" cy="240" r="13.2" fill="#f8f8f8" stroke="#333" stroke-width="0.8"/><text x="180" y="240" fill="black" font-size="12" font-family="sans-serif" text-anchor="middle" dominant-baseline="central">122</text><circle cx="180" cy="210" r="13.2" fill="#111" stroke="#000" stroke-width="0.8"/><text x="180" y="210" fill="white" font-size="12" font-family="sans-serif" text-anchor="middle" dominant-baseline="central">123</text><circle cx="240" cy="210" r="13.2" fill="#f8f8f8" stroke="#333" stroke-width="0.8"/><text x="240" y="210" fill="black" font-size="12" font-family="sans-serif" text-anchor="middle" dominant-baseline="central">124</text><circle cx="210" cy="210" r="13.2" fill="#111" stroke="#000" stroke-width="0.8"/><text x="210" y="210" fill="white" font-size="12" font-family="sans-serif" text-anchor="middle" dominant-baseline="central">125</text><circle cx="240" cy="240" r="13.2" fill="#f8f8f8" stroke="#333" stroke-width="0.8"/><text x="240" y="240" fill="black" font-size="12" font-family="sans-serif" text-anchor="middle" dominant-baseline="central">126</text><circle cx="180" cy="360" r="13.2" fill="#111" stroke="#000" stroke-width="0.8"/><text x="180" y="360" fill="white" font-size="12" font-family="sans-serif" text-anchor="middle" dominant-baseline="central">127</text><circle cx="120" cy="270" r="13.2" fill="#f8f8f8" stroke="#333" stroke-width="0.8"/><text x="120" y="270" fill="black" font-size="12" font-family="sans-serif" text-anchor="middle" dominant-baseline="central">128</text><circle cx="90" cy="300" r="13.2" fill="#111" stroke="#000" stroke-width="0.8"/><text x="90" y="300" fill="white" font-size="12" font-family="sans-serif" text-anchor="middle" dominant-baseline="central">129</text><circle cx="120" cy="240" r="13.2" fill="#f8f8f8" stroke="#333" stroke-width="0.8"/><text x="120" y="240" fill="black" font-size="12" font-family="sans-serif" text-anchor="middle" dominant-baseline="central">130</text><circle cx="90" cy="360" r="13.2" fill="#111" stroke="#000" stroke-width="0.8"/><text x="90" y="360" fill="white" font-size="12" font-family="sans-serif" text-anchor="middle" dominant-baseline="central">131</text><circle cx="120" cy="330" r="13.2" fill="#f8f8f8" stroke="#333" stroke-width="0.8"/><text x="120" y="330" fill="black" font-size="12" font-family="sans-serif" text-anchor="middle" dominant-baseline="central">132</text><circle cx="120" cy="360" r="13.2" fill="#111" stroke="#000" stroke-width="0.8"/><text x="120" y="360" fill="white" font-size="12" font-family="sans-serif" text-anchor="middle" dominant-baseline="central">133</text><circle cx="120" cy="450" r="13.2" fill="#f8f8f8" stroke="#333" stroke-width="0.8"/><text x="120" y="450" fill="black" font-size="12" font-family="sans-serif" text-anchor="middle" dominant-baseline="central">134</text><circle cx="120" cy="300" r="13.2" fill="#111" stroke="#000" stroke-width="0.8"/><text x="120" y="300" fill="white" font-size="12" font-family="sans-serif" text-anchor="middle" dominant-baseline="central">135</text><circle cx="60" cy="330" r="13.2" fill="#f8f8f8" stroke="#333" stroke-width="0.8"/><text x="60" y="330" fill="black" font-size="12" font-family="sans-serif" text-anchor="middle" dominant-baseline="central">136</text><circle cx="210" cy="270" r="13.2" fill="#111" stroke="#000" stroke-width="0.8"/><text x="210" y="270" fill="white" font-size="12" font-family="sans-serif" text-anchor="middle" dominant-baseline="central">137</text><circle cx="180" cy="300" r="13.2" fill="#f8f8f8" stroke="#333" stroke-width="0.8"/><text x="180" y="300" fill="black" font-size="12" font-family="sans-serif" text-anchor="middle" dominant-baseline="central">138</text><circle cx="150" cy="330" r="13.2" fill="#111" stroke="#000" stroke-width="0.8"/><text x="150" y="330" fill="white" font-size="12" font-family="sans-serif" text-anchor="middle" dominant-baseline="central">139</text><circle cx="60" cy="360" r="13.2" fill="#f8f8f8" stroke="#333" stroke-width="0.8"/><text x="60" y="360" fill="black" font-size="12" font-family="sans-serif" text-anchor="middle" dominant-baseline="central">140</text><circle cx="240" cy="270" r="13.2" fill="#111" stroke="#000" stroke-width="0.8"/><text x="240" y="270" fill="white" font-size="12" font-family="sans-serif" text-anchor="middle" dominant-baseline="central">141</text><circle cx="120" cy="210" r="13.2" fill="#f8f8f8" stroke="#333" stroke-width="0.8"/><text x="120" y="210" fill="black" font-size="12" font-family="sans-serif" text-anchor="middle" dominant-baseline="central">142</text><circle cx="300" cy="270" r="13.2" fill="#111" stroke="#000" stroke-width="0.8"/><text x="300" y="270" fill="white" font-size="12" font-family="sans-serif" text-anchor="middle" dominant-baseline="central">143</text><circle cx="300" cy="120" r="13.2" fill="#f8f8f8" stroke="#333" stroke-width="0.8"/><text x="300" y="120" fill="black" font-size="12" font-family="sans-serif" text-anchor="middle" dominant-baseline="central">144</text><circle cx="300" cy="90" r="13.2" fill="#111" stroke="#000" stroke-width="0.8"/><text x="300" y="90" fill="white" font-size="12" font-family="sans-serif" text-anchor="middle" dominant-baseline="central">145</text><circle cx="330" cy="240" r="13.2" fill="#f8f8f8" stroke="#333" stroke-width="0.8"/><text x="330" y="240" fill="black" font-size="12" font-family="sans-serif" text-anchor="middle" dominant-baseline="central">146</text><circle cx="300" cy="240" r="13.2" fill="#111" stroke="#000" stroke-width="0.8"/><text x="300" y="240" fill="white" font-size="12" font-family="sans-serif" text-anchor="middle" dominant-baseline="central">147</text><circle cx="330" cy="180" r="13.2" fill="#f8f8f8" stroke="#333" stroke-width="0.8"/><text x="330" y="180" fill="black" font-size="12" font-family="sans-serif" text-anchor="middle" dominant-baseline="central">148</text><circle cx="240" cy="300" r="13.2" fill="#111" stroke="#000" stroke-width="0.8"/><text x="240" y="300" fill="white" font-size="12" font-family="sans-serif" text-anchor="middle" dominant-baseline="central">149</text><circle cx="240" cy="360" r="13.2" fill="#f8f8f8" stroke="#333" stroke-width="0.8"/><text x="240" y="360" fill="black" font-size="12" font-family="sans-serif" text-anchor="middle" dominant-baseline="central">150</text><circle cx="270" cy="360" r="13.2" fill="#111" stroke="#000" stroke-width="0.8"/><text x="270" y="360" fill="white" font-size="12" font-family="sans-serif" text-anchor="middle" dominant-baseline="central">151</text><circle cx="270" cy="390" r="13.2" fill="#f8f8f8" stroke="#333" stroke-width="0.8"/><text x="270" y="390" fill="black" font-size="12" font-family="sans-serif" text-anchor="middle" dominant-baseline="central">152</text><circle cx="240" cy="330" r="13.2" fill="#111" stroke="#000" stroke-width="0.8"/><text x="240" y="330" fill="white" font-size="12" font-family="sans-serif" text-anchor="middle" dominant-baseline="central">153</text><circle cx="240" cy="390" r="13.2" fill="#f8f8f8" stroke="#333" stroke-width="0.8"/><text x="240" y="390" fill="black" font-size="12" font-family="sans-serif" text-anchor="middle" dominant-baseline="central">154</text><circle cx="360" cy="240" r="13.2" fill="#111" stroke="#000" stroke-width="0.8"/><text x="360" y="240" fill="white" font-size="12" font-family="sans-serif" text-anchor="middle" dominant-baseline="central">155</text><circle cx="330" cy="270" r="13.2" fill="#f8f8f8" stroke="#333" stroke-width="0.8"/><text x="330" y="270" fill="black" font-size="12" font-family="sans-serif" text-anchor="middle" dominant-baseline="central">156</text><circle cx="330" cy="210" r="13.2" fill="#111" stroke="#000" stroke-width="0.8"/><text x="330" y="210" fill="white" font-size="12" font-family="sans-serif" text-anchor="middle" dominant-baseline="central">157</text><circle cx="360" cy="210" r="13.2" fill="#f8f8f8" stroke="#333" stroke-width="0.8"/><text x="360" y="210" fill="black" font-size="12" font-family="sans-serif" text-anchor="middle" dominant-baseline="central">158</text><circle cx="300" cy="210" r="13.2" fill="#111" stroke="#000" stroke-width="0.8"/><text x="300" y="210" fill="white" font-size="12" font-family="sans-serif" text-anchor="middle" dominant-baseline="central">159</text><circle cx="360" cy="150" r="13.2" fill="#f8f8f8" stroke="#333" stroke-width="0.8"/><text x="360" y="150" fill="black" font-size="12" font-family="sans-serif" text-anchor="middle" dominant-baseline="central">160</text><circle cx="330" cy="300" r="13.2" fill="#111" stroke="#000" stroke-width="0.8"/><text x="330" y="300" fill="white" font-size="12" font-family="sans-serif" text-anchor="middle" dominant-baseline="central">161</text><circle cx="360" cy="270" r="13.2" fill="#f8f8f8" stroke="#333" stroke-width="0.8"/><text x="360" y="270" fill="black" font-size="12" font-family="sans-serif" text-anchor="middle" dominant-baseline="central">162</text><circle cx="300" cy="330" r="13.2" fill="#111" stroke="#000" stroke-width="0.8"/><text x="300" y="330" fill="white" font-size="12" font-family="sans-serif" text-anchor="middle" dominant-baseline="central">163</text><circle cx="240" cy="180" r="13.2" fill="#f8f8f8" stroke="#333" stroke-width="0.8"/><text x="240" y="180" fill="black" font-size="12" font-family="sans-serif" text-anchor="middle" dominant-baseline="central">164</text></g><g transform="translate(0, 670)"><circle cx="30" cy="30" r="13.2" fill="#f8f8f8" stroke="#333" stroke-width="0.8"/><text x="30" y="30" fill="black" font-size="15" font-family="sans-serif" text-anchor="middle" dominant-baseline="central">46</text><text x="51" y="30" font-size="16" font-family="sans-serif" text-anchor="middle" dominant-baseline="central">=</text><circle cx="72" cy="30" r="13.2" fill="#111" stroke="#000" stroke-width="0.8"/><text x="72" y="30" fill="white" font-size="15" font-family="sans-serif" text-anchor="middle" dominant-baseline="central">41</text><circle cx="117" cy="30" r="13.2" fill="#111" stroke="#000" stroke-width="0.8"/><text x="117" y="30" fill="white" font-size="15" font-family="sans-serif" text-anchor="middle" dominant-baseline="central">97</text><text x="138" y="30" font-size="16" font-family="sans-serif" text-anchor="middle" dominant-baseline="central">=</text><circle cx="159" cy="30" r="13.2" fill="#111" stroke="#000" stroke-width="0.8"/><text x="159" y="30" fill="white" font-size="15" font-family="sans-serif" text-anchor="middle" dominant-baseline="central">87</text><circle cx="204" cy="30" r="13.2" fill="#f8f8f8" stroke="#333" stroke-width="0.8"/><text x="204" y="30" fill="black" font-size="12" font-family="sans-serif" text-anchor="middle" dominant-baseline="central">104</text><text x="225" y="30" font-size="16" font-family="sans-serif" text-anchor="middle" dominant-baseline="central">=</text><circle cx="246" cy="30" r="13.2" fill="#f8f8f8" stroke="#333" stroke-width="0.8"/><text x="246" y="30" fill="black" font-size="15" font-family="sans-serif" text-anchor="middle" dominant-baseline="central">94</text></g></svg>